<svg width="344" height="60" viewBox="0 0 344 60" fill="none" xmlns="http://www.w3.org/2000/svg">
<path d="M7.30256 5.80673C4.52063 8.92191 2.78193 12.7294 1.7387 16.8829C1.39096 17.9213 0 24.4978 0 29.3437V30.7282C0 35.574 1.39096 42.4966 1.7387 43.535C2.78193 47.3425 4.52063 51.1499 7.30256 54.2651C13.5619 61.1877 23.2986 61.1877 31.2967 57.7264C39.9902 54.2651 47.6405 50.4577 55.2908 45.2657C61.2024 41.1121 69.5482 36.6124 69.5482 30.0359C69.5482 23.4594 61.2024 18.9597 55.2908 14.46C47.9882 9.26804 39.9902 5.4606 31.2967 1.99928C23.2986 -1.1159 13.5619 -1.1159 7.30256 5.80673Z" fill="#FA7328"/>
<path d="M89.6463 41.1898C89.9147 41.3679 90.7648 41.7464 92.1965 42.3254C93.6282 42.9043 95.306 43.1938 97.2298 43.1938C98.6167 43.1938 99.7352 42.9711 100.585 42.5258C101.435 42.0359 102.062 41.3011 102.464 40.3214C102.912 39.3416 103.203 38.0724 103.337 36.5138C103.516 34.9106 103.605 32.9734 103.605 30.7022V6.58749H116.692V30.7022C116.692 34.3094 116.468 37.5826 116.021 40.5218C115.618 43.461 114.768 45.9994 113.471 48.1369C112.173 50.2745 110.227 51.9223 107.632 53.0801C105.037 54.1935 101.57 54.7501 97.2298 54.7501C95.1717 54.7501 93.2926 54.5052 91.5925 54.0153C89.8924 53.5255 88.3265 52.7907 86.8948 51.8109L89.6463 41.1898Z" fill="#FA7328"/>
<path d="M120.806 43.3942C120.806 41.0339 121.455 38.9631 122.752 37.1818C124.05 35.3559 125.839 33.9309 128.121 32.9066C130.448 31.8823 133.087 31.3702 136.04 31.3702C137.427 31.3702 138.724 31.4815 139.932 31.7042C141.185 31.9269 142.259 32.2609 143.154 32.7062V31.6374C143.154 29.9897 142.662 28.765 141.677 27.9634C140.738 27.1618 139.194 26.761 137.047 26.761C135.078 26.761 133.221 27.095 131.477 27.763C129.776 28.3865 127.987 29.3217 126.108 30.5686L122.417 22.6862C124.788 21.1721 127.271 20.0588 129.866 19.3462C132.506 18.5892 135.324 18.2107 138.322 18.2107C143.914 18.2107 148.232 19.4798 151.274 22.0182C154.361 24.5121 155.905 28.2306 155.905 33.1738V39.9874C155.905 41.1898 156.084 42.0359 156.442 42.5258C156.8 42.9711 157.426 43.2383 158.321 43.3274V54.0153C157.292 54.238 156.307 54.3939 155.368 54.4829C154.473 54.6165 153.668 54.6833 152.952 54.6833C150.67 54.6833 148.925 54.2825 147.717 53.4809C146.554 52.6348 145.793 51.4101 145.436 49.8069L145.167 48.5377C143.601 50.5417 141.789 52.0781 139.731 53.1469C137.673 54.1712 135.481 54.6833 133.154 54.6833C130.828 54.6833 128.725 54.1935 126.846 53.2137C124.967 52.234 123.49 50.898 122.417 49.2057C121.343 47.4689 120.806 45.5318 120.806 43.3942ZM141.476 44.2626C141.968 43.9063 142.371 43.5278 142.684 43.127C142.997 42.6816 143.154 42.2363 143.154 41.791V39.1858C142.438 38.9186 141.61 38.6959 140.671 38.5178C139.776 38.3396 138.971 38.2506 138.255 38.2506C136.734 38.2506 135.436 38.6291 134.362 39.3862C133.333 40.1432 132.819 41.1007 132.819 42.2586C132.819 42.882 132.998 43.461 133.356 43.9954C133.714 44.4852 134.206 44.886 134.832 45.1978C135.458 45.465 136.174 45.5986 136.98 45.5986C137.74 45.5986 138.523 45.4872 139.328 45.2646C140.179 44.9974 140.894 44.6634 141.476 44.2626Z" fill="#FA7328"/>
<path d="M219.836 54.0153H207.085V34.2426C207.085 32.5058 206.727 31.2589 206.012 30.5018C205.34 29.7002 204.513 29.2994 203.528 29.2994C202.544 29.2994 201.47 29.767 200.307 30.7022C199.144 31.6374 198.294 32.8398 197.757 34.3094V54.0153H185.006V34.2426C185.006 32.5058 184.648 31.2589 183.932 30.5018C183.261 29.7002 182.433 29.2994 181.449 29.2994C180.465 29.2994 179.391 29.767 178.228 30.7022C177.065 31.6374 176.215 32.8398 175.678 34.3094V54.0153H162.927V18.8786H174.403V24.089C175.655 22.1741 177.378 20.7268 179.57 19.747C181.762 18.7228 184.357 18.2107 187.355 18.2107C190.263 18.2107 192.455 18.8341 193.932 20.081C195.408 21.328 196.392 22.7308 196.885 24.2894C198.137 22.3745 199.86 20.8826 202.052 19.8138C204.244 18.7451 206.705 18.2107 209.434 18.2107C211.761 18.2107 213.617 18.6337 215.004 19.4798C216.391 20.326 217.42 21.417 218.091 22.753C218.807 24.089 219.277 25.4918 219.501 26.9614C219.724 28.3865 219.836 29.7002 219.836 30.9026V54.0153Z" fill="#FA7328"/>
<path d="M226.584 54.0153V6.58749H239.671V42.6594H261.28V54.0153H226.584Z" fill="#FA7328"/>
<path d="M263.022 43.3942C263.022 41.0339 263.671 38.9631 264.969 37.1818C266.266 35.3559 268.056 33.9309 270.337 32.9066C272.664 31.8823 275.304 31.3702 278.256 31.3702C279.643 31.3702 280.941 31.4815 282.149 31.7042C283.402 31.9269 284.475 32.2609 285.37 32.7062V31.6374C285.37 29.9897 284.878 28.765 283.894 27.9634C282.954 27.1618 281.411 26.761 279.263 26.761C277.295 26.761 275.438 27.095 273.693 27.763C271.993 28.3865 270.203 29.3217 268.324 30.5686L264.633 22.6862C267.004 21.1721 269.487 20.0588 272.082 19.3462C274.722 18.5892 277.541 18.2107 280.538 18.2107C286.131 18.2107 290.448 19.4798 293.491 22.0182C296.578 24.5121 298.121 28.2306 298.121 33.1738V39.9874C298.121 41.1898 298.3 42.0359 298.658 42.5258C299.016 42.9711 299.642 43.2383 300.537 43.3274V54.0153C299.508 54.238 298.524 54.3939 297.584 54.4829C296.689 54.6165 295.884 54.6833 295.168 54.6833C292.887 54.6833 291.142 54.2825 289.934 53.4809C288.77 52.6348 288.01 51.4101 287.652 49.8069L287.383 48.5377C285.818 50.5417 284.006 52.0781 281.948 53.1469C279.889 54.1712 277.697 54.6833 275.371 54.6833C273.044 54.6833 270.941 54.1935 269.062 53.2137C267.183 52.234 265.707 50.898 264.633 49.2057C263.559 47.4689 263.022 45.5318 263.022 43.3942ZM283.692 44.2626C284.185 43.9063 284.587 43.5278 284.9 43.127C285.214 42.6816 285.37 42.2363 285.37 41.791V39.1858C284.654 38.9186 283.827 38.6959 282.887 38.5178C281.992 38.3396 281.187 38.2506 280.471 38.2506C278.95 38.2506 277.652 38.6291 276.579 39.3862C275.55 40.1432 275.035 41.1007 275.035 42.2586C275.035 42.882 275.214 43.461 275.572 43.9954C275.93 44.4852 276.422 44.886 277.048 45.1978C277.675 45.465 278.391 45.5986 279.196 45.5986C279.957 45.5986 280.74 45.4872 281.545 45.2646C282.395 44.9974 283.111 44.6634 283.692 44.2626Z" fill="#FA7328"/>
<path d="M327.625 54.6833C324.985 54.6833 322.704 54.1712 320.78 53.1469C318.856 52.0781 317.335 50.5417 316.216 48.5377V54.0153H305.143V5.2515H317.894V24.089C318.923 22.1741 320.377 20.7268 322.256 19.747C324.135 18.7228 326.35 18.2107 328.9 18.2107C331.048 18.2107 333.039 18.6782 334.873 19.6134C336.707 20.5041 338.296 21.7733 339.638 23.421C341.025 25.0688 342.099 27.0282 342.859 29.2994C343.62 31.5261 344 33.9531 344 36.5806C344 39.1635 343.575 41.5683 342.725 43.795C341.92 45.9771 340.779 47.892 339.302 49.5397C337.871 51.1875 336.148 52.4567 334.135 53.3473C332.166 54.238 329.996 54.6833 327.625 54.6833ZM323.934 43.9954C324.963 43.9954 325.903 43.8172 326.753 43.461C327.603 43.1047 328.341 42.6148 328.967 41.9914C329.594 41.3234 330.063 40.544 330.377 39.6534C330.735 38.7627 330.913 37.7607 330.913 36.6474C330.913 35.2223 330.623 33.9309 330.041 32.773C329.504 31.5706 328.744 30.6354 327.759 29.9674C326.82 29.2549 325.724 28.8986 324.471 28.8986C323.576 28.8986 322.704 29.1213 321.854 29.5666C321.004 30.0119 320.221 30.6354 319.505 31.437C318.834 32.1941 318.297 33.0847 317.894 34.109V40.3882C318.297 40.9671 318.722 41.5015 319.169 41.9914C319.661 42.4367 320.153 42.8152 320.646 43.127C321.138 43.3942 321.652 43.6168 322.189 43.795C322.771 43.9286 323.352 43.9954 323.934 43.9954Z" fill="#FA7328"/>
</svg>
